<svg id="Layer_1" xmlns="http://www.w3.org/2000/svg" viewBox="0 0 800 500"><defs><style>.cls-1,.cls-2{fill:#fff;}.cls-1,.cls-2,.cls-3,.cls-4,.cls-5{stroke:#d4d5d6;stroke-width:3.06px;}.cls-1,.cls-3{stroke-linecap:round;}.cls-1,.cls-2,.cls-3,.cls-5{stroke-miterlimit:10;}.cls-3,.cls-4{fill:none;}.cls-4{stroke-linejoin:round;}.cls-5{fill:#ececec;}</style></defs><line class="cls-1" x1="586.51" y1="126.25" x2="572.28" y2="126.25"/><line class="cls-1" x1="579.39" y1="133.37" x2="579.39" y2="119.14"/><line class="cls-1" x1="260.13" y1="423.98" x2="245.9" y2="423.98"/><line class="cls-1" x1="253.02" y1="431.1" x2="253.02" y2="416.87"/><line class="cls-1" x1="210.38" y1="102.18" x2="201.42" y2="102.18"/><line class="cls-1" x1="205.9" y1="106.66" x2="205.9" y2="97.7"/><line class="cls-1" x1="381.23" y1="290.26" x2="372.27" y2="290.26"/><line class="cls-1" x1="376.75" y1="294.74" x2="376.75" y2="285.78"/><line class="cls-1" x1="627.82" y1="283.68" x2="618.47" y2="293.04"/><line class="cls-1" x1="627.82" y1="293.04" x2="618.47" y2="283.68"/><line class="cls-1" x1="484.16" y1="433.54" x2="474.81" y2="442.89"/><line class="cls-1" x1="484.16" y1="442.89" x2="474.81" y2="433.54"/><line class="cls-1" x1="152.18" y1="228.19" x2="142.83" y2="237.54"/><line class="cls-1" x1="152.18" y1="237.54" x2="142.83" y2="228.19"/><rect class="cls-2" x="334.46" y="102.18" width="126.81" height="56.83" rx="8.56"/><rect class="cls-2" x="211.22" y="218.53" width="126.81" height="56.83" rx="8.56"/><rect class="cls-2" x="162.55" y="334.87" width="99.36" height="56.83" rx="8.56"/><rect class="cls-2" x="287.35" y="334.87" width="99.36" height="56.83" rx="8.56"/><rect class="cls-2" x="412.59" y="334.87" width="99.36" height="56.83" rx="8.56"/><rect class="cls-2" x="537.4" y="334.87" width="99.36" height="56.83" rx="8.56"/><rect class="cls-2" x="461.27" y="218.53" width="126.81" height="56.83" rx="8.56"/><line class="cls-3" x1="352.56" y1="127.84" x2="443.16" y2="127.84"/><line class="cls-3" x1="352.56" y1="140" x2="399.95" y2="140"/><line class="cls-3" x1="229.32" y1="244.19" x2="319.93" y2="244.19"/><line class="cls-3" x1="229.32" y1="256.34" x2="276.71" y2="256.34"/><line class="cls-3" x1="178.96" y1="360.52" x2="245.49" y2="360.52"/><line class="cls-3" x1="178.96" y1="372.67" x2="213.76" y2="372.67"/><line class="cls-3" x1="303.76" y1="360.52" x2="370.29" y2="360.52"/><line class="cls-3" x1="303.76" y1="372.67" x2="338.56" y2="372.67"/><line class="cls-3" x1="429.01" y1="360.52" x2="495.53" y2="360.52"/><line class="cls-3" x1="429.01" y1="372.67" x2="463.81" y2="372.67"/><line class="cls-3" x1="553.81" y1="360.52" x2="620.34" y2="360.52"/><line class="cls-3" x1="553.81" y1="372.67" x2="588.61" y2="372.67"/><line class="cls-3" x1="479.37" y1="244.19" x2="569.98" y2="244.19"/><line class="cls-3" x1="479.37" y1="256.34" x2="526.76" y2="256.34"/><polyline class="cls-4" points="524.67 218.53 524.67 188.82 274.62 188.82 274.62 218.53"/><polyline class="cls-4" points="337.02 334.87 337.02 305.17 212 305.17 212 334.87"/><polyline class="cls-4" points="587.3 334.87 587.3 305.17 462.27 305.17 462.27 334.87"/><line class="cls-4" x1="397.86" y1="159.01" x2="397.86" y2="188.82"/><line class="cls-4" x1="524.67" y1="275.36" x2="524.67" y2="305.17"/><line class="cls-4" x1="274.62" y1="275.36" x2="274.62" y2="305.17"/><circle class="cls-5" cx="241" cy="218.53" r="14.33"/><circle class="cls-5" cx="364.24" cy="102.18" r="14.33"/><circle class="cls-5" cx="491.05" cy="218.53" r="14.33"/><circle class="cls-5" cx="187.08" cy="334.87" r="14.33"/><circle class="cls-5" cx="312.11" cy="334.87" r="14.33"/><circle class="cls-5" cx="437.13" cy="334.87" r="14.33"/><circle class="cls-5" cx="562.16" cy="334.87" r="14.33"/></svg>