<?xml version="1.0" standalone="no"?>
<!DOCTYPE svg PUBLIC "-//W3C//DTD SVG 20010904//EN"
 "http://www.w3.org/TR/2001/REC-SVG-20010904/DTD/svg10.dtd">
<svg version="1.0" xmlns="http://www.w3.org/2000/svg"
 width="415.000000pt" height="415.000000pt" viewBox="0 0 415.000000 415.000000"
 preserveAspectRatio="xMidYMid meet">
<metadata>
Created by potrace 1.16, written by Peter Selinger 2001-2019
</metadata>
<g transform="translate(0.000000,415.000000) scale(0.100000,-0.100000)"
fill="#000000" stroke="none">
<path d="M2028 4120 c-125 -22 -194 -55 -398 -189 -200 -132 -258 -154 -514
-191 -270 -39 -346 -69 -456 -180 -113 -112 -169 -249 -215 -524 -39 -235 -54
-268 -207 -439 -164 -183 -203 -275 -202 -477 1 -212 34 -300 175 -480 124
-159 138 -195 209 -546 52 -259 86 -332 204 -449 129 -128 256 -185 455 -205
188 -19 280 -57 481 -201 217 -155 329 -199 506 -199 188 0 315 50 489 191
165 134 190 144 464 185 97 14 210 37 252 50 146 46 277 165 367 334 50 92 66
148 91 317 31 203 52 251 182 418 85 110 163 258 189 361 24 93 26 232 5 321
-22 95 -63 175 -159 316 -152 223 -173 278 -206 541 -12 87 -30 184 -40 215
-65 183 -287 371 -505 425 -33 9 -109 20 -170 26 -208 21 -266 45 -430 182
-135 112 -195 151 -271 177 -68 23 -226 34 -296 21z m332 -464 c327 -60 616
-213 850 -447 124 -125 214 -252 300 -424 118 -237 164 -435 163 -705 0 -237
-36 -422 -123 -622 -217 -503 -664 -857 -1205 -954 -133 -24 -404 -24 -530 -1
-289 54 -531 164 -751 343 -281 228 -475 551 -555 924 -20 90 -23 135 -23 310
0 229 14 322 79 516 190 572 713 998 1317 1074 102 12 377 4 478 -14z"/>
<path d="M1819 3600 c-324 -57 -585 -195 -825 -434 -227 -228 -352 -453 -425
-771 -30 -133 -37 -394 -14 -540 102 -649 577 -1147 1229 -1287 147 -32 425
-32 581 0 483 97 882 402 1095 837 110 223 155 423 155 680 -1 196 -22 327
-81 496 -188 542 -667 940 -1228 1024 -140 20 -353 18 -487 -5z m439 -186 c19
-4 22 -11 22 -54 0 -48 -1 -50 -28 -50 -19 0 -30 7 -37 23 -8 18 -19 23 -63
25 l-53 3 3 -43 3 -43 58 -3 c56 -3 57 -4 57 -32 0 -29 -1 -29 -62 -32 l-63
-3 -3 -41 c-3 -39 -1 -42 29 -48 57 -11 81 -7 86 14 4 14 14 20 34 20 28 0 29
-1 29 -52 l0 -51 -146 7 c-144 7 -146 7 -280 -29 -74 -19 -139 -35 -144 -35
-16 0 -12 48 4 57 13 7 10 27 -16 131 -28 113 -32 122 -54 122 -18 0 -24 5
-24 23 0 20 9 25 64 40 35 9 69 17 74 17 19 0 22 -33 6 -51 -16 -18 -15 -25
11 -126 15 -60 31 -111 34 -115 3 -4 25 -2 49 4 34 8 42 15 42 33 0 22 17 35
45 35 7 0 16 -13 20 -29 5 -26 9 -29 28 -22 25 9 34 59 36 188 1 63 -1 72 -19
78 -19 6 -27 34 -14 47 6 7 235 0 272 -8z m-724 -155 c15 -22 26 -42 24 -44
-23 -19 -50 -24 -67 -13 -15 9 -23 9 -36 -2 -22 -18 -18 -30 48 -132 46 -70
61 -87 84 -90 48 -5 39 -32 -24 -72 -31 -20 -63 -36 -69 -36 -17 0 -26 30 -13
46 12 15 15 9 -59 127 -30 48 -59 87 -64 87 -25 0 -45 -21 -41 -42 3 -16 -3
-27 -18 -37 -25 -15 -34 -7 -64 50 -13 25 -13 25 123 112 75 48 140 87 143 87
4 0 19 -18 33 -41z m1171 12 c49 -22 105 -83 105 -115 0 -13 -8 -34 -18 -46
-16 -20 -21 -21 -41 -10 -19 9 -22 18 -17 40 4 24 0 34 -25 54 -40 34 -79 33
-120 -1 -35 -29 -68 -94 -69 -131 0 -30 60 -92 89 -92 11 0 25 9 32 21 9 17 7
25 -10 43 -19 20 -19 24 -7 42 15 19 16 18 70 -10 31 -16 56 -34 56 -40 -1 -6
-16 -36 -34 -66 l-33 -55 -51 1 c-63 2 -131 39 -161 88 -52 83 -5 226 89 274
53 27 92 28 145 3z m-1518 -259 c31 -27 31 -27 13 -50 -14 -16 -25 -21 -42
-17 -17 4 -27 0 -36 -16 -7 -11 -12 -22 -10 -23 2 -1 39 -31 83 -66 44 -35 86
-68 93 -73 8 -6 17 -5 27 3 12 10 18 10 30 0 8 -7 15 -17 15 -22 0 -15 -84
-118 -96 -118 -19 0 -34 25 -28 46 4 16 -13 35 -86 94 l-92 73 -21 -21 c-17
-17 -18 -23 -7 -36 10 -13 9 -20 -4 -41 l-17 -26 -40 32 c-22 17 -39 35 -37
39 10 27 196 249 208 249 8 0 29 -12 47 -27z m1840 11 c21 -9 48 -36 65 -62
39 -61 36 -131 -8 -194 -88 -125 -265 -119 -320 10 -63 147 117 316 263 246z
m264 -358 c21 -52 25 -71 16 -77 -17 -11 -47 -10 -47 2 0 17 -27 11 -120 -26
-94 -38 -116 -58 -104 -97 7 -26 43 -67 57 -67 6 0 54 17 108 38 83 31 99 41
99 58 0 23 28 41 41 27 4 -4 18 -36 32 -70 18 -44 22 -64 14 -72 -15 -15 -27
-14 -46 3 -14 11 -31 8 -120 -26 -111 -42 -139 -43 -186 -6 -38 30 -65 90 -65
147 0 72 28 100 137 141 100 37 113 45 113 70 0 18 16 30 34 26 5 -1 22 -33
37 -71z m-2375 -11 c49 -20 46 -17 38 -48 -4 -19 -13 -26 -30 -26 -24 0 -35
-16 -50 -74 -4 -17 1 -25 21 -34 43 -20 51 -15 69 43 18 57 29 65 61 41 18
-13 18 -15 2 -58 -22 -58 -21 -67 7 -78 51 -19 57 -17 77 32 16 40 16 48 4 58
-17 14 -19 38 -6 59 7 11 16 11 55 -4 25 -10 46 -19 46 -21 0 -1 -21 -60 -47
-131 -35 -97 -48 -147 -52 -208 -5 -68 -9 -80 -25 -83 -10 -2 -22 2 -26 9 -6
9 -21 3 -57 -23 -60 -43 -62 -62 -6 -66 34 -3 44 1 53 17 6 12 20 21 30 21 18
0 20 -7 20 -80 0 -78 -1 -80 -24 -80 -15 0 -26 7 -29 20 -5 19 -14 20 -130 20
-114 0 -125 -2 -130 -19 -3 -14 -11 -17 -31 -14 -19 4 -25 10 -22 20 3 8 6 41
6 74 0 56 1 59 24 59 16 0 26 -7 29 -21 5 -17 12 -20 44 -17 51 4 53 26 5 59
-27 20 -45 25 -69 22 l-33 -5 0 76 c0 74 1 76 25 76 15 0 25 -6 25 -14 0 -16
101 -106 119 -106 14 0 121 71 139 92 6 8 13 29 14 47 l3 33 -105 39 c-108 40
-140 46 -140 29 0 -13 -37 -13 -46 1 -7 12 85 279 97 279 3 0 24 -7 45 -16z
m2504 -499 c0 -115 -13 -162 -51 -189 -31 -22 -82 -20 -110 3 -24 19 -24 19
-45 0 -12 -11 -39 -23 -60 -26 -45 -7 -84 -37 -60 -46 8 -3 16 -15 18 -27 5
-32 203 -118 230 -101 11 7 28 9 39 6 22 -7 21 -16 -13 -92 l-20 -45 -136 7
-137 6 100 -93 99 -94 -24 -58 c-14 -32 -31 -60 -38 -63 -16 -7 -43 16 -40 34
2 11 -33 31 -111 65 -105 46 -116 49 -127 33 -10 -13 -16 -14 -33 -5 -12 6
-21 12 -21 14 0 2 13 34 30 71 22 50 34 66 47 63 10 -2 19 -13 21 -26 3 -17
22 -32 74 -58 38 -19 72 -34 74 -31 2 2 -34 41 -81 86 -77 75 -83 85 -74 107
l9 26 128 -6 127 -6 -78 31 c-69 27 -82 30 -103 19 -18 -10 -26 -10 -38 -1
-12 10 -10 21 14 75 22 48 28 73 23 100 -9 54 14 82 73 89 55 6 74 25 74 74 0
33 -1 33 -46 33 -38 0 -47 -4 -51 -21 -4 -14 -12 -19 -27 -17 -19 3 -21 10
-24 81 -3 76 -2 77 21 77 17 0 26 -7 30 -21 5 -19 11 -21 44 -16 21 4 77 7
124 7 78 0 87 2 92 20 3 14 14 20 31 20 l26 0 0 -105z m-2272 -387 c5 -7 36
-69 68 -137 47 -100 68 -133 113 -176 49 -47 54 -55 41 -70 -8 -10 -22 -14
-35 -11 -15 4 -30 -3 -50 -24 l-29 -30 44 -45 c24 -25 49 -45 54 -45 5 0 22
12 38 26 22 22 25 30 17 47 -8 15 -7 23 4 35 14 13 20 12 54 -15 64 -51 79
-72 66 -91 -6 -10 -21 -16 -35 -14 -18 1 -43 -18 -108 -83 -75 -75 -83 -87
-73 -104 10 -16 8 -22 -8 -37 -19 -17 -21 -17 -76 38 -49 49 -55 59 -43 73 9
11 22 14 40 10 22 -5 31 0 53 28 l26 34 -50 49 -51 49 -29 -35 c-20 -24 -28
-42 -24 -56 3 -13 -1 -27 -10 -34 -17 -14 -25 -10 -87 49 -41 38 -46 52 -23
71 12 10 18 10 31 -1 14 -11 26 -1 97 76 65 71 82 95 82 119 0 22 -7 35 -23
43 -21 11 -36 6 -133 -43 -78 -38 -109 -59 -107 -70 2 -9 -6 -22 -17 -30 -20
-13 -24 -7 -88 121 l-67 135 40 20 c51 26 58 25 72 -5 9 -21 8 -27 -6 -38 -17
-13 -17 -16 4 -58 12 -24 24 -45 25 -47 8 -9 65 30 65 44 0 8 -10 33 -21 56
-20 40 -21 42 -3 55 29 21 39 16 64 -37 13 -27 27 -50 30 -50 12 0 80 30 80
35 0 2 -10 25 -22 50 -18 38 -26 45 -44 41 -16 -4 -24 1 -32 20 -16 33 -17 31
26 53 45 24 47 24 60 9z m1727 -334 c0 -25 16 -49 79 -118 65 -72 83 -86 101
-82 14 4 28 0 35 -10 11 -13 6 -23 -36 -65 -27 -28 -75 -73 -107 -101 l-58
-51 -37 36 -37 37 22 22 c18 18 25 19 37 9 13 -11 22 -8 56 19 22 17 40 34 40
38 0 3 -12 19 -27 34 l-27 28 -43 -42 -43 -42 -22 22 -22 22 44 45 44 45 -29
30 c-16 16 -31 30 -34 30 -3 0 -24 -15 -46 -34 -35 -30 -38 -35 -26 -50 13
-15 12 -20 -7 -39 l-22 -22 -38 39 -37 38 105 99 c58 54 112 98 120 96 9 -1
15 -14 15 -33z m-1175 -249 c45 -23 49 -28 40 -45 -6 -11 -21 -20 -33 -20 -19
0 -30 -17 -70 -104 -26 -57 -47 -106 -47 -110 0 -3 9 -10 21 -16 16 -9 24 -8
39 5 15 13 23 14 39 5 25 -13 26 -24 3 -72 l-17 -38 -145 66 c-80 37 -149 70
-153 74 -10 9 29 90 44 90 25 0 47 -21 42 -39 -5 -20 29 -47 45 -37 5 3 30 52
56 110 45 97 47 106 32 121 -12 12 -13 21 -6 35 12 22 23 19 110 -25z m856 13
c4 -13 2 -24 -5 -26 -6 -2 -11 -11 -11 -20 0 -17 77 -201 89 -213 14 -15 51
11 51 35 0 23 16 36 44 36 15 0 49 -81 38 -91 -12 -11 -293 -132 -296 -128 -2
2 -13 23 -25 46 -21 42 -21 42 -2 53 28 14 48 13 55 -5 4 -12 10 -13 31 -3 14
6 25 15 25 19 0 5 -21 56 -46 114 -40 91 -50 105 -70 105 -13 0 -24 2 -24 4 0
2 -3 11 -6 20 -5 12 9 23 57 45 78 36 86 37 95 9z"/>
<path d="M2915 2952 c-47 -29 -95 -89 -95 -120 0 -35 25 -70 56 -83 45 -17
128 32 160 93 21 41 17 71 -14 101 -33 32 -65 34 -107 9z"/>
</g>
</svg>
